<?xml version="1.0" encoding="UTF-8"?>
<svg xmlns="http://www.w3.org/2000/svg" viewBox="0 0 678 754" version="1.1">
  <title>Offhand logo</title>
  <rect width="100%" height="100%" fill="#ffffff"/>
  <path d="M 0 0 L 0 753 L 677 753 L 677 0 Z M 11 456 L 12 455 L 445 455 L 446 456 L 446 742 L 445 743 L 12 743 L 11 742 Z M 398 466 L 257 466 L 257 729 L 289 729 L 289 624 L 291 622 L 390 622 L 390 592 L 290 592 L 289 591 L 289 498 L 290 497 L 398 497 Z M 205 466 L 64 466 L 64 729 L 96 729 L 96 624 L 98 622 L 197 622 L 197 592 L 97 592 L 96 591 L 96 498 L 97 497 L 205 497 Z M 459 10 L 665 10 L 667 12 L 667 741 L 666 742 L 459 742 L 458 741 L 458 11 Z M 471 576 L 471 598 L 549 598 L 550 599 L 550 702 L 549 703 L 471 703 L 471 725 L 651 725 L 651 703 L 571 703 L 570 702 L 570 599 L 571 598 L 651 598 L 651 576 Z M 651 389 L 647 390 L 644 392 L 639 393 L 636 395 L 631 396 L 623 400 L 618 401 L 615 403 L 610 404 L 607 406 L 602 407 L 599 409 L 594 410 L 591 412 L 586 413 L 583 415 L 578 416 L 575 418 L 570 419 L 567 421 L 565 421 L 562 423 L 560 423 L 554 426 L 549 427 L 546 429 L 541 430 L 538 432 L 533 433 L 530 435 L 525 436 L 522 438 L 517 439 L 514 441 L 512 441 L 509 443 L 507 443 L 501 446 L 496 447 L 493 449 L 488 450 L 485 452 L 480 453 L 477 455 L 472 456 L 471 457 L 471 482 L 475 483 L 478 485 L 483 486 L 486 488 L 491 489 L 494 491 L 499 492 L 502 494 L 507 495 L 510 497 L 515 498 L 518 500 L 520 500 L 523 502 L 528 503 L 531 505 L 536 506 L 539 508 L 544 509 L 547 511 L 552 512 L 555 514 L 560 515 L 563 517 L 568 518 L 571 520 L 576 521 L 579 523 L 581 523 L 584 525 L 586 525 L 592 528 L 597 529 L 600 531 L 605 532 L 608 534 L 613 535 L 616 537 L 621 538 L 624 540 L 629 541 L 632 543 L 634 543 L 637 545 L 642 546 L 645 548 L 647 548 L 651 550 L 651 525 L 647 524 L 646 523 L 644 523 L 641 521 L 639 521 L 638 520 L 630 518 L 627 516 L 619 514 L 616 512 L 608 510 L 600 506 L 600 433 L 606 430 L 611 429 L 614 427 L 619 426 L 622 424 L 627 423 L 630 421 L 635 420 L 638 418 L 643 417 L 646 415 L 651 414 Z M 579 441 L 579 498 L 578 499 L 574 497 L 569 496 L 566 494 L 558 492 L 555 490 L 550 489 L 547 487 L 542 486 L 539 484 L 534 483 L 531 481 L 526 480 L 523 478 L 518 477 L 515 475 L 507 473 L 501 470 L 502 468 L 504 468 L 507 466 L 515 464 L 518 462 L 523 461 L 526 459 L 531 458 L 534 456 L 539 455 L 542 453 L 547 452 L 550 450 L 555 449 L 558 447 L 566 445 L 569 443 L 574 442 L 577 440 Z M 471 219 L 471 241 L 611 241 L 612 242 L 606 247 L 605 247 L 599 252 L 598 252 L 595 255 L 594 255 L 591 258 L 587 260 L 580 266 L 576 268 L 565 277 L 561 279 L 550 288 L 546 290 L 535 299 L 531 301 L 520 310 L 516 312 L 505 321 L 501 323 L 490 332 L 486 334 L 475 343 L 471 345 L 471 372 L 475 371 L 477 369 L 478 369 L 480 367 L 481 367 L 491 360 L 651 360 L 651 338 L 523 338 L 522 337 L 525 334 L 529 332 L 532 329 L 533 329 L 552 314 L 556 312 L 575 297 L 579 295 L 598 280 L 602 278 L 605 275 L 606 275 L 625 260 L 629 258 L 632 255 L 633 255 L 636 252 L 637 252 L 640 249 L 641 249 L 644 246 L 645 246 L 648 243 L 649 243 L 651 241 L 651 219 Z M 485 55 L 477 71 L 477 73 L 476 74 L 476 76 L 474 80 L 473 89 L 472 90 L 472 99 L 471 100 L 471 170 L 651 170 L 651 100 L 650 99 L 650 90 L 649 89 L 648 80 L 647 79 L 645 71 L 643 68 L 643 66 L 640 60 L 638 58 L 637 55 L 634 52 L 634 51 L 631 48 L 631 47 L 623 39 L 622 39 L 615 33 L 597 24 L 595 24 L 591 22 L 588 22 L 587 21 L 583 21 L 582 20 L 577 20 L 576 19 L 546 19 L 545 20 L 540 20 L 539 21 L 535 21 L 534 22 L 531 22 L 530 23 L 525 24 L 507 33 L 504 36 L 503 36 L 500 39 L 499 39 L 491 47 L 491 48 Z M 499 74 L 501 72 L 503 68 L 506 65 L 506 64 L 518 53 L 531 46 L 533 46 L 534 45 L 536 45 L 540 43 L 543 43 L 544 42 L 549 42 L 550 41 L 572 41 L 573 42 L 578 42 L 579 43 L 582 43 L 583 44 L 591 46 L 601 51 L 607 56 L 608 56 L 617 65 L 617 66 L 620 69 L 621 72 L 623 74 L 625 78 L 625 80 L 627 83 L 627 86 L 628 87 L 628 89 L 629 90 L 629 94 L 630 95 L 630 147 L 629 148 L 493 148 L 492 147 L 492 95 L 493 94 L 493 90 L 494 89 L 494 87 L 495 86 L 495 84 L 496 83 L 496 81 L 497 80 L 497 78 Z M 11 11 L 12 10 L 444 10 L 446 12 L 446 442 L 445 443 L 12 443 L 11 442 Z M 218 24 L 217 25 L 205 25 L 204 26 L 197 26 L 196 27 L 191 27 L 190 28 L 185 28 L 184 29 L 181 29 L 180 30 L 176 30 L 175 31 L 172 31 L 168 33 L 165 33 L 164 34 L 156 36 L 153 38 L 151 38 L 148 40 L 146 40 L 141 43 L 139 43 L 129 48 L 127 50 L 122 52 L 120 54 L 117 55 L 115 57 L 108 61 L 101 67 L 100 67 L 88 78 L 87 78 L 71 95 L 71 96 L 67 100 L 67 101 L 64 104 L 62 108 L 59 111 L 56 117 L 54 119 L 53 122 L 51 124 L 41 144 L 41 146 L 39 149 L 39 151 L 37 154 L 37 156 L 36 157 L 36 159 L 34 163 L 34 166 L 32 170 L 32 173 L 31 174 L 31 177 L 30 178 L 30 181 L 29 182 L 28 192 L 27 193 L 27 199 L 26 200 L 26 209 L 25 210 L 25 246 L 26 247 L 26 256 L 27 257 L 28 269 L 29 270 L 29 274 L 30 275 L 30 278 L 31 279 L 32 286 L 34 290 L 34 293 L 35 294 L 37 302 L 39 305 L 39 307 L 41 310 L 41 312 L 51 332 L 53 334 L 54 337 L 56 339 L 59 345 L 62 348 L 64 352 L 71 360 L 71 361 L 78 368 L 78 369 L 95 385 L 96 385 L 100 389 L 101 389 L 108 395 L 109 395 L 117 401 L 120 402 L 122 404 L 127 406 L 129 408 L 139 413 L 141 413 L 146 416 L 148 416 L 151 418 L 153 418 L 156 420 L 158 420 L 159 421 L 161 421 L 165 423 L 168 423 L 172 425 L 180 426 L 181 427 L 184 427 L 185 428 L 190 428 L 191 429 L 196 429 L 197 430 L 204 430 L 205 431 L 217 431 L 218 432 L 239 432 L 240 431 L 253 431 L 254 430 L 261 430 L 262 429 L 267 429 L 268 428 L 277 427 L 278 426 L 281 426 L 282 425 L 289 424 L 290 423 L 292 423 L 293 422 L 295 422 L 296 421 L 304 419 L 312 415 L 314 415 L 332 406 L 334 404 L 339 402 L 341 400 L 342 400 L 344 398 L 351 394 L 359 387 L 360 387 L 365 382 L 366 382 L 383 365 L 383 364 L 388 359 L 388 358 L 395 350 L 395 349 L 403 338 L 404 335 L 406 333 L 416 313 L 416 311 L 420 303 L 420 301 L 421 300 L 421 298 L 422 297 L 422 295 L 423 294 L 423 292 L 425 288 L 425 285 L 426 284 L 426 281 L 427 280 L 427 277 L 428 276 L 428 272 L 429 271 L 429 267 L 430 266 L 430 261 L 431 260 L 431 253 L 432 252 L 432 239 L 433 238 L 433 218 L 432 217 L 432 204 L 431 203 L 431 196 L 430 195 L 430 190 L 429 189 L 428 180 L 427 179 L 427 176 L 426 175 L 425 168 L 424 167 L 424 165 L 423 164 L 423 162 L 422 161 L 420 153 L 416 145 L 416 143 L 406 123 L 404 121 L 403 118 L 401 116 L 401 115 L 399 113 L 395 106 L 388 98 L 388 97 L 383 92 L 383 91 L 366 74 L 365 74 L 360 69 L 359 69 L 351 62 L 350 62 L 339 54 L 334 52 L 332 50 L 314 41 L 312 41 L 304 37 L 302 37 L 301 36 L 299 36 L 298 35 L 296 35 L 295 34 L 293 34 L 289 32 L 286 32 L 285 31 L 282 31 L 281 30 L 278 30 L 277 29 L 273 29 L 272 28 L 268 28 L 267 27 L 262 27 L 261 26 L 254 26 L 253 25 L 241 25 L 240 24 Z M 224 72 L 233 72 L 234 73 L 247 73 L 248 74 L 254 74 L 255 75 L 259 75 L 260 76 L 264 76 L 265 77 L 272 78 L 273 79 L 275 79 L 276 80 L 284 82 L 287 84 L 289 84 L 307 93 L 309 95 L 310 95 L 312 97 L 319 101 L 327 108 L 328 108 L 346 126 L 346 127 L 353 135 L 353 136 L 359 144 L 360 147 L 362 149 L 370 165 L 370 167 L 372 170 L 372 172 L 373 173 L 373 175 L 374 176 L 374 178 L 376 182 L 376 185 L 377 186 L 377 188 L 378 189 L 378 193 L 379 194 L 379 198 L 380 199 L 380 204 L 381 205 L 381 212 L 382 213 L 382 243 L 381 244 L 381 251 L 380 252 L 380 257 L 379 258 L 379 262 L 378 263 L 377 271 L 376 272 L 376 274 L 375 275 L 375 277 L 374 278 L 372 286 L 370 289 L 370 291 L 367 296 L 367 298 L 365 302 L 363 304 L 358 314 L 356 316 L 354 320 L 351 323 L 351 324 L 347 328 L 347 329 L 327 349 L 326 349 L 322 353 L 321 353 L 318 356 L 317 356 L 312 360 L 309 361 L 307 363 L 304 364 L 302 366 L 296 369 L 294 369 L 284 374 L 282 374 L 281 375 L 279 375 L 278 376 L 276 376 L 272 378 L 265 379 L 264 380 L 260 380 L 259 381 L 255 381 L 254 382 L 248 382 L 247 383 L 234 383 L 233 384 L 225 384 L 224 383 L 211 383 L 210 382 L 198 381 L 197 380 L 194 380 L 193 379 L 186 378 L 185 377 L 183 377 L 182 376 L 180 376 L 179 375 L 171 373 L 166 370 L 164 370 L 154 365 L 152 363 L 149 362 L 147 360 L 140 356 L 133 350 L 132 350 L 111 329 L 111 328 L 104 320 L 104 319 L 100 314 L 99 311 L 97 309 L 95 304 L 93 302 L 91 298 L 91 296 L 88 291 L 88 289 L 86 286 L 86 284 L 85 283 L 85 281 L 84 280 L 84 278 L 83 277 L 83 275 L 81 271 L 80 263 L 79 262 L 79 258 L 78 257 L 78 252 L 77 251 L 77 244 L 76 243 L 76 213 L 77 212 L 77 205 L 78 204 L 78 199 L 79 198 L 79 194 L 80 193 L 80 189 L 82 185 L 82 182 L 83 181 L 83 179 L 84 178 L 86 170 L 88 167 L 88 165 L 97 147 L 99 145 L 99 144 L 101 142 L 105 135 L 112 127 L 112 126 L 130 108 L 131 108 L 136 103 L 140 101 L 146 96 L 149 95 L 151 93 L 156 91 L 158 89 L 162 87 L 164 87 L 174 82 L 176 82 L 177 81 L 179 81 L 180 80 L 182 80 L 186 78 L 189 78 L 190 77 L 197 76 L 198 75 L 210 74 L 211 73 L 223 73 Z " fill="#000000" fill-rule="evenodd"/>
</svg>
